<svg data-v-0dd9719b="" version="1.0" xmlns="http://www.w3.org/2000/svg" xmlns:xlink="http://www.w3.org/1999/xlink" width="100%" height="100%" viewBox="0 0 340.000000 250.000000" preserveAspectRatio="xMidYMid meet" color-interpolation-filters="sRGB" style="margin: auto;"> <rect data-v-0dd9719b="" x="0" y="0" width="100%" height="100%" fill="#fff" fill-opacity="1" class="background"></rect> <rect data-v-0dd9719b="" x="0" y="0" width="100%" height="100%" fill="url(#watermark)" fill-opacity="1" class="watermarklayer"></rect> <g data-v-0dd9719b="" fill="#333" class="icon-text-wrapper icon-svg-group iconsvg" transform="translate(78.29499816894531,95.07302284240723)"><g class="iconsvg-imagesvg" transform="translate(0,0)"><g><rect fill="#333" fill-opacity="0" stroke-width="2" x="0" y="0" width="60" height="59.85395634651451" class="image-rect"></rect> <svg x="0" y="0" width="60" height="59.85395634651451" filtersec="colorsb1105606413" class="image-svg-svg primary" style="overflow: visible;"><svg xmlns="http://www.w3.org/2000/svg" viewBox="-0.023774877190589905 0 106.28377532958984 106.02488708496094"><path d="M57.18 0c2.27.34 4.54.65 6.8 1a19.8 19.8 0 0 1 3.83 1l-4.62.26C51.19 3 40 6.2 30 13a31.86 31.86 0 0 0-11.15 12.17 19.07 19.07 0 0 0-.17 17.09 4.82 4.82 0 0 0 2 2.09 55.4 55.4 0 0 0 12.69 5.3c5.7 1.79 11.52 3.26 16.83 6.1 5.49 2.92 10.06 6.86 12.87 12.52a15.43 15.43 0 0 1-.42 15.41c-.69 1.2-.73 1.19-1.62.14-2.09-2.43-5-3.31-7.92-4A80.93 80.93 0 0 0 42.6 78.8c-4.47-.38-8.73-1.38-12.4-4.15a20.28 20.28 0 0 1-4.76-5.06c.24-.25.35 0 .46 0 4.89 4.58 10.68 5.82 17.11 4.53 2.32-.47 4.6-1.14 6.92-1.6a9.79 9.79 0 0 1 8.7 2.06 17.54 17.54 0 0 0-8.27-9.86A26 26 0 0 0 40.1 62c-4.07-.39-8.13.26-12.19 0-5.29-.32-10.27-1.58-14.53-4.94-.25-.2-.48-.41-.72-.62l-.86-.77a37.75 37.75 0 0 0 5.61 21.56 37 37 0 0 0 17 14.27 35.69 35.69 0 0 0 22 2.51 4.62 4.62 0 0 1-1.59 1.17 26.15 26.15 0 0 1-10.36 2.87 37.89 37.89 0 0 1-19.12-3.28A39.16 39.16 0 0 1 9.39 81.58 49.2 49.2 0 0 1 .31 58a49.83 49.83 0 0 1 7.45-32.5 53.23 53.23 0 0 1 27.7-22.67A47.9 47.9 0 0 1 47.87.17a5.68 5.68 0 0 0 .82-.17z" fill="#8fcf69"></path><path d="M106.22 57.53c-.17 1.18-.33 2.37-.51 3.55a52 52 0 0 1-12.38 26.46A51.37 51.37 0 0 1 64 105a56.19 56.19 0 0 1-24.81-.78c-.22-.06-.49 0-.71-.38 1.82 0 3.57-.06 5.32-.19 12.19-.93 23.6-4.15 33.61-11.42 5-3.67 9.23-8.16 11.23-14.27a19 19 0 0 0-1.16-14.56 4.41 4.41 0 0 0-1.87-1.81 53.11 53.11 0 0 0-12.08-5.12c-5.06-1.58-10.2-2.93-15.06-5.12-6.52-2.94-12-7.16-15.26-13.67a15.37 15.37 0 0 1 .2-15 12.05 12.05 0 0 1 .68-1.07c.21-.29.46-.33.69 0 2.8 3.75 7 4.37 11.19 5 4 .6 8 .4 12 1.23a19.12 19.12 0 0 1 12.77 8.7 33.6 33.6 0 0 0-2.66-2.1 18.53 18.53 0 0 0-12-3c-3.35.25-6.48 1.47-9.75 2a10 10 0 0 1-8.45-1.89 3.11 3.11 0 0 0 .44 1.45c2.59 5.69 7.15 8.9 13.09 10.29a39.13 39.13 0 0 0 11.38.71c6-.38 11.95.09 17.42 3.07a25.17 25.17 0 0 1 4.31 3.18 37.71 37.71 0 0 0-5.63-21.57A36.85 36.85 0 0 0 72 14.41a34.79 34.79 0 0 0-22.18-2.34 4.58 4.58 0 0 1 1.69-1.26 26.38 26.38 0 0 1 10.72-2.95 37.73 37.73 0 0 1 25.49 7.2 42.82 42.82 0 0 1 12.34 14.37A51 51 0 0 1 106 47.8a5.39 5.39 0 0 0 .26 1.87z" fill="#6cab36"></path></svg></svg> <!----></g></g> <g transform="translate(67,6.121976852416992)"><g data-gra="path-name" fill-rule="" class="tp-name iconsvg-namesvg"><g transform="scale(1)"><g><path d="M43.42-46.57L43.42 0 37.08 0 37.08-21.19 11.99-21.19 11.99 0 5.66 0 5.66-46.57 11.99-46.57 11.99-25.8 37.08-25.8 37.08-46.57 43.42-46.57ZM80.18-42.28L78.65-39.29Q78.36-38.8 78.03-38.56 77.71-38.32 77.19-38.32L77.19-38.32Q76.64-38.32 75.9-38.87 75.17-39.42 74.05-40.09 72.93-40.76 71.35-41.31 69.78-41.86 67.53-41.86L67.53-41.86Q65.42-41.86 63.8-41.29 62.17-40.72 61.08-39.75 60-38.77 59.44-37.46 58.89-36.14 58.89-34.61L58.89-34.61Q58.89-32.66 59.85-31.38 60.81-30.1 62.38-29.19 63.96-28.28 65.96-27.61 67.96-26.94 70.05-26.23 72.15-25.51 74.15-24.62 76.15-23.73 77.72-22.36 79.3-21 80.26-19.01 81.22-17.03 81.22-14.14L81.22-14.14Q81.22-11.08 80.18-8.4 79.14-5.72 77.14-3.74 75.14-1.76 72.23-0.62 69.32 0.52 65.62 0.52L65.62 0.52Q61.1 0.52 57.38-1.12 53.66-2.76 51.02-5.56L51.02-5.56 52.84-8.55Q53.11-8.91 53.48-9.15 53.85-9.39 54.31-9.39L54.31-9.39Q54.99-9.39 55.87-8.66 56.75-7.93 58.06-7.05 59.38-6.17 61.25-5.44 63.12-4.71 65.81-4.71L65.81-4.71Q68.06-4.71 69.81-5.33 71.56-5.95 72.78-7.07 74-8.19 74.65-9.75 75.3-11.31 75.3-13.23L75.3-13.23Q75.3-15.34 74.34-16.69 73.39-18.04 71.83-18.95 70.27-19.86 68.27-20.49 66.27-21.13 64.17-21.79 62.08-22.46 60.08-23.34 58.08-24.21 56.52-25.61 54.96-27.01 54-29.1 53.04-31.2 53.04-34.29L53.04-34.29Q53.04-36.76 54-39.07 54.96-41.37 56.78-43.16 58.6-44.95 61.28-46.02 63.96-47.09 67.44-47.09L67.44-47.09Q71.34-47.09 74.56-45.86 77.77-44.62 80.18-42.28L80.18-42.28ZM105.72 0L89.25 0 89.25-46.57 104.1-46.57Q108.39-46.57 111.49-45.73 114.59-44.88 116.59-43.32 118.59-41.76 119.55-39.5 120.51-37.25 120.51-34.42L120.51-34.42Q120.51-32.7 119.97-31.1 119.44-29.51 118.35-28.14 117.26-26.78 115.62-25.71 113.98-24.64 111.77-23.95L111.77-23.95Q116.87-22.95 119.47-20.28 122.07-17.62 122.07-13.26L122.07-13.26Q122.07-10.3 120.98-7.87 119.89-5.43 117.8-3.67 115.7-1.92 112.66-0.96 109.62 0 105.72 0L105.72 0ZM105.59-21.22L95.55-21.22 95.55-5 105.63-5Q108.32-5 110.26-5.62 112.19-6.24 113.44-7.36 114.69-8.48 115.28-10.03 115.86-11.57 115.86-13.42L115.86-13.42Q115.86-17.03 113.31-19.13 110.76-21.22 105.59-21.22L105.59-21.22ZM95.55-41.6L95.55-25.71 103.87-25.71Q106.53-25.71 108.48-26.29 110.44-26.88 111.72-27.92 113-28.96 113.62-30.44 114.24-31.92 114.24-33.67L114.24-33.67Q114.24-37.77 111.77-39.68 109.3-41.6 104.1-41.6L104.1-41.6 95.55-41.6Z" transform="translate(-5.659999847412109, 47.09000015258789)"></path></g> <!----> <!----> <!----> <!----> <!----> <!----> <!----></g></g> <!----></g></g><defs v-gra="od"></defs></svg>